<svg width="38" height="38" viewBox="0 0 38 38" fill="none" xmlns="http://www.w3.org/2000/svg">
<g clip-path="url(#clip0_36_39)">
<path d="M37.6872 5.6182C37.2551 5.3189 36.5361 5.59441 36.0814 6.23355L24.9046 21.9472C24.9046 21.9472 24.8462 22.0464 24.7381 22.0464C24.5464 22.0464 24.1865 22.0464 23.971 22.0464C23.7785 22.0464 23.8371 21.8846 23.8371 21.8846L30.7402 1.87147C30.995 1.13231 30.7966 0.396936 30.2966 0.22923C29.7967 0.0613084 29.185 0.52431 28.9298 1.26358L21.8174 21.8844C21.8174 21.8844 21.7475 22.0463 21.5583 22.0463C16.4447 22.0463 1.10413 22.0463 1.10413 22.0463C0.212074 22.0463 -0.2306 22.7174 0.12049 23.5374L5.58936 36.3139C5.94034 37.1339 6.95739 37.8049 7.84944 37.8049H26.6834C27.5755 37.8049 28.5924 37.1339 28.9435 36.3139L34.4124 23.5374C34.7633 22.7174 34.3207 22.0463 33.4286 22.0463C33.4286 22.0463 28.8084 22.0463 27.2684 22.0463C27.1648 22.0463 27.235 21.954 27.235 21.954L37.6459 7.31753C38.1013 6.67828 38.1195 5.9176 37.6872 5.6182Z" fill="white"/>
<path d="M23.6456 12.9246L24.0166 11.8498C24.0726 11.7018 23.9546 11.6275 23.8989 11.5862C22.8847 10.8303 21.6342 10.3843 20.3013 10.3843C18.0445 10.3843 16.0115 11.6229 14.9697 13.5856C14.4678 13.4542 13.9508 13.388 13.426 13.388C11.1779 13.388 9.12093 14.6411 8.0682 16.5804C7.26395 16.056 6.32367 15.774 5.34804 15.774C2.65393 15.774 0.451486 17.9191 0.359037 20.591C0.356983 20.649 0.358929 20.7659 0.469111 20.7659H1.55039C1.6676 20.7659 1.6544 20.6735 1.65613 20.6275C1.72923 18.6544 3.3573 17.0715 5.34815 17.0715C6.28951 17.0715 7.18556 17.4278 7.87411 18.0715C8.00084 18.19 8.21839 18.3922 8.54277 18.257C8.76876 18.1631 8.87116 17.9564 8.92684 17.8224C9.69379 15.9758 11.4258 14.6853 13.4261 14.6853C13.9981 14.6853 14.5637 14.77 15.0903 14.9823C15.2083 15.0297 15.4089 15.1211 15.5981 15.013C15.806 14.8942 15.8681 14.7375 15.9156 14.6206C16.6415 12.8316 18.3717 11.6814 20.3014 11.6814C21.4577 11.6814 22.5354 12.1087 23.3704 12.8196C23.4514 12.8893 23.6127 13.0196 23.6456 12.9246Z" fill="white"/>
<path d="M27.5878 14.6711L27.2068 15.7765C27.1744 15.8644 27.2535 15.8688 27.2946 15.8644C27.4437 15.8485 27.5963 15.8632 27.7455 15.8366C27.7848 15.8297 27.8018 15.8138 27.8287 15.7847L28.6448 14.6373C28.6683 14.608 28.6131 14.5897 28.5832 14.5858C28.3332 14.555 28.0788 14.5381 27.8203 14.5381C27.7988 14.5381 27.7772 14.5382 27.7555 14.5385C27.7143 14.5387 27.6405 14.5378 27.5878 14.6711Z" fill="white"/>
<path d="M32.3989 16.7479L31.752 17.6574C31.6955 17.7211 31.7609 17.8057 31.7899 17.8449C32.3559 18.6122 32.7054 19.5488 32.7466 20.5635C32.7493 20.6307 32.7813 20.7661 32.8894 20.7661H33.9256C34.0878 20.7661 34.0473 20.6428 34.0454 20.5816C34.0026 19.1241 33.4559 17.7919 32.5748 16.7504C32.5427 16.7127 32.461 16.6488 32.3989 16.7479Z" fill="white"/>
</g>
<defs>
<clipPath id="clip0_36_39">
<rect width="38" height="38" fill="white"/>
</clipPath>
</defs>
</svg>
