<svg width="36" height="36" viewBox="0 0 36 36" fill="none" xmlns="http://www.w3.org/2000/svg">
<path d="M34.1187 25.7829C34.681 25.2126 34.9908 24.4589 34.9908 23.6575C34.9908 22.6045 34.4351 21.636 33.5634 21.0904V15.965C34.0698 15.7052 34.5064 15.3999 34.8663 15.0405C35.6185 14.289 36 13.3295 36 12.1885C36 9.59296 34.0745 7.18533 30.5782 5.40922C27.2086 3.69737 22.7416 2.75464 18 2.75464C13.2583 2.75464 8.7914 3.69737 5.4217 5.40913C1.9255 7.18533 0 9.59287 0 12.1885C0 13.3295 0.381449 14.289 1.13375 15.0406C1.52125 15.4276 1.99783 15.7521 2.55474 16.0243V21.0184C2.31418 21.1537 2.09128 21.321 1.89614 21.5161C1.32443 22.0878 1.0096 22.8484 1.0096 23.6575C1.0096 24.4847 1.34327 25.2352 1.88277 25.7822C0.870981 26.246 0.168477 27.2493 0.168477 28.4101C0.168477 31.0761 2.39728 33.245 5.1369 33.245H30.8631C33.6027 33.245 35.8315 31.0761 35.8315 28.4101C35.8315 27.2499 35.1298 26.247 34.1187 25.7829ZM3.73222 20.0875C5.04522 20.5844 6.55587 20.4232 7.73983 19.6028C8.26907 19.2362 8.8899 19.0423 9.53512 19.0423C10.1809 19.0423 10.802 19.2361 11.3312 19.6027C12.0591 20.1071 12.9121 20.3738 13.7979 20.3738C14.6832 20.3738 15.5359 20.1072 16.2638 19.6028C16.793 19.2362 17.4138 19.0423 18.059 19.0423C18.7043 19.0423 19.3251 19.2361 19.8543 19.6027C20.5822 20.1071 21.4349 20.3738 22.3202 20.3738C23.206 20.3738 24.059 20.1072 24.7868 19.6028C25.3161 19.2362 25.9372 19.0423 26.583 19.0423C27.2282 19.0423 27.849 19.2361 28.3782 19.6027C29.1061 20.1071 29.9588 20.3738 30.8441 20.3738C31.3766 20.3738 31.897 20.2766 32.3859 20.09V21.6288C31.9162 21.8926 31.386 22.0314 30.8441 22.0314C30.1999 22.0314 29.579 21.8374 29.0484 21.4706C28.3201 20.9669 27.4676 20.7007 26.5829 20.7007C25.6977 20.7007 24.8449 20.9669 24.1166 21.4706C23.5861 21.8375 22.965 22.0314 22.3202 22.0314C21.676 22.0314 21.055 21.8374 20.5245 21.4706C19.7962 20.9669 18.9437 20.7007 18.059 20.7007C17.1743 20.7007 16.3218 20.9669 15.5935 21.4706C15.0629 21.8375 14.4421 22.0314 13.7978 22.0314C13.153 22.0314 12.5318 21.8374 12.0013 21.4706C11.273 20.9669 10.4202 20.7007 9.53504 20.7007C8.65035 20.7007 7.79787 20.9669 7.06946 21.4707C6.06995 22.1624 4.77715 22.2179 3.73214 21.6297V20.0875H3.73222ZM3.73222 16.4892C6.7394 17.4436 11.329 17.439 16.7579 17.433C17.5783 17.4321 20.0635 17.4338 20.4672 17.4338C25.431 17.4338 29.6071 17.3678 32.3859 16.4492V18.7934C31.9159 19.0577 31.3884 19.1961 30.8441 19.1961C30.1996 19.1961 29.5788 19.002 29.0488 18.6348C28.3217 18.1309 27.469 17.8646 26.583 17.8646C25.6963 17.8646 24.8434 18.1309 24.1162 18.6348C23.5863 19.002 22.9652 19.196 22.3202 19.196C21.6757 19.196 21.0549 19.0019 20.5249 18.6347C19.7977 18.1308 18.9451 17.8645 18.059 17.8645C17.173 17.8645 16.3203 18.1308 15.5931 18.6347C15.0632 19.0019 14.4424 19.196 13.7979 19.196C13.1529 19.196 12.5318 19.0018 12.0018 18.6346C11.2746 18.1308 10.4217 17.8645 9.53512 17.8645C8.64908 17.8645 7.79636 18.1308 7.06921 18.6346C6.07794 19.3215 4.77185 19.3741 3.73222 18.7928V16.4892ZM1.17757 12.1885C1.17757 10.0589 2.87428 8.02418 5.95506 6.45902C9.16259 4.8296 13.4402 3.93221 18 3.93221C22.5598 3.93221 26.8373 4.8296 30.0449 6.45902C33.1257 8.0241 34.8224 10.0589 34.8224 12.1885C34.8224 13.0171 34.5646 13.6774 34.034 14.2074C31.9705 16.2688 26.0714 16.2622 19.2433 16.2555C18.8326 16.2551 18.418 16.2546 18 16.2546C17.582 16.2546 17.1674 16.2551 16.7567 16.2555C9.92616 16.2625 4.02948 16.2689 1.96595 14.2074C1.43537 13.6774 1.17757 13.0171 1.17757 12.1885ZM2.71808 22.3606C2.74517 22.3889 2.89438 22.4971 2.9425 22.5285C3.65627 22.9844 4.46535 23.2114 5.27392 23.2114C6.13573 23.2114 6.99679 22.9532 7.7395 22.4392C8.27007 22.0723 8.89091 21.8784 9.53521 21.8784C10.18 21.8784 10.8012 22.0723 11.3317 22.4392C12.0599 22.9428 12.9127 23.209 13.7979 23.209C14.6826 23.209 15.5351 22.9428 16.2634 22.4392C16.794 22.0723 17.4148 21.8784 18.0591 21.8784C18.7034 21.8784 19.3243 22.0723 19.8548 22.4392C20.5831 22.9428 21.4356 23.209 22.3203 23.209C23.2055 23.209 24.0583 22.9428 24.7866 22.4392C25.3172 22.0723 25.9383 21.8784 26.5831 21.8784C27.2273 21.8784 27.8482 22.0723 28.3788 22.4392C29.107 22.9428 29.9596 23.209 30.8443 23.209C31.652 23.209 32.4407 22.9844 33.1212 22.5621C33.1905 22.5199 33.3255 22.4267 33.3348 22.4195C33.6349 22.753 33.8134 23.1917 33.8134 23.6576C33.8134 24.1518 33.6207 24.6166 33.2705 24.9668C32.9222 25.3158 32.4579 25.5081 31.963 25.5081H4.03772C3.01736 25.5081 2.18725 24.678 2.18725 23.6576C2.18708 23.1682 2.37592 22.7086 2.71808 22.3606ZM20.5454 26.6856L18.0001 29.2309L15.4543 26.6856H20.5454ZM30.8631 32.0676H5.13681C3.04646 32.0676 1.34596 30.4269 1.34596 28.4102C1.34596 27.4592 2.15226 26.6856 3.14327 26.6856H4.03755H13.7888L17.5839 30.4799C17.6989 30.5949 17.8495 30.6524 18.0002 30.6524C18.1508 30.6524 18.3015 30.5948 18.4165 30.4799L22.2108 26.6856H31.9628H32.8566C33.8477 26.6856 34.654 27.4593 34.654 28.4102C34.654 30.4269 32.9534 32.0676 30.8631 32.0676Z" fill="white"/>
</svg>
