<svg width="25" height="18" viewBox="0 0 25 18" fill="none" xmlns="http://www.w3.org/2000/svg">
<path d="M16.5352 16.2109C16.5352 17.1992 15.7422 17.9922 14.7539 17.9922C13.7656 17.9922 12.9648 17.1992 12.9648 16.2109C12.9648 15.2227 13.7695 14.4219 14.7539 14.4219C15.7461 14.4219 16.5352 15.2227 16.5352 16.2109ZM6.61719 14.4219C5.62891 14.4219 4.83594 15.2266 4.83594 16.2109C4.83594 17.1953 5.62891 17.9922 6.61719 17.9922C7.60547 17.9922 8.40625 17.1992 8.40625 16.2109C8.40625 15.2227 7.60547 14.4219 6.61719 14.4219ZM18.0117 3.875C6.20703 3.875 3.19922 3.375 0 0C1.34375 2.01953 2.08203 5.81641 14.5742 5.63281C27.5938 5.4375 19.6523 8.99609 17.3398 13.0117C24.6328 6.5 29.8164 3.875 18.0117 3.875Z" fill="white"/>
</svg>
