<svg width="37" height="37" viewBox="0 0 37 37" fill="none" xmlns="http://www.w3.org/2000/svg">
<path d="M16.0568 12.8463C16.3722 12.9508 16.714 12.7796 16.8179 12.4649L19.4549 4.53275C19.5594 4.21796 19.3883 3.87679 19.0729 3.77222C18.7576 3.66715 18.4163 3.8377 18.3118 4.15357L15.676 12.0846C15.571 12.4006 15.7415 12.7418 16.0568 12.8463Z" fill="white"/>
<path d="M18.1449 13.4655C18.4597 13.57 18.8009 13.3989 18.9054 13.0841L21.3276 5.79758C21.4327 5.48164 21.2621 5.14163 20.9462 5.03713C20.6309 4.93141 20.2903 5.1026 20.1857 5.41739L17.7629 12.7039C17.6578 13.0198 17.8289 13.3604 18.1449 13.4655Z" fill="white"/>
<path d="M10.1156 5.98018C10.6567 6.23687 10.7939 6.79924 10.9468 7.32938C11.2213 8.2731 11.9852 9.83425 13.5653 10.5545C14.0087 10.7573 14.5946 10.9761 15.2121 11.1892L15.7469 9.58045L14.7096 9.08644C14.3195 8.90094 14.2288 8.61325 14.3747 8.30533C14.5079 8.02508 14.7503 7.80214 15.1523 7.97507L16.1265 8.43801L16.5814 7.0698L15.767 6.68325C15.4091 6.52246 15.3982 6.15253 15.532 5.87164C15.6779 5.56552 15.9593 5.45293 16.3488 5.63793L16.9605 5.92858L17.5234 4.23533C17.2517 4.07909 16.9944 3.93665 16.7657 3.82348C15.2097 3.05443 13.5159 3.44611 12.6118 3.82869C12.1041 4.04404 11.5815 4.29336 11.0398 4.03544L3.7171 0.130711C3.41661 -0.0180841 3.06858 -0.0416427 2.75098 0.0692851C2.43387 0.178406 2.17487 0.410957 2.03013 0.71375L1.94225 0.899256C1.79808 1.20248 1.78139 1.55059 1.89687 1.86646C2.01177 2.18125 2.24844 2.43685 2.55456 2.5764L10.1156 5.98018Z" fill="white"/>
<path d="M20.2964 14.288C20.6129 14.3937 20.9535 14.222 21.058 13.9066L23.3653 6.96696C23.4703 6.65224 23.2992 6.31107 22.9839 6.20535C22.6686 6.10085 22.3268 6.27082 22.2223 6.58677L19.915 13.5269C19.8105 13.8423 19.9811 14.1835 20.2964 14.288Z" fill="white"/>
<path d="M16.6418 23.3631C17.2593 22.9236 18.1093 22.4785 19.2174 22.077C19.5309 21.9639 19.6917 21.6198 19.5792 21.3068C19.4661 20.9943 19.1215 20.8318 18.8084 20.9449C17.2208 21.5205 16.0686 22.1937 15.2852 22.9139C14.8941 23.2735 14.5948 23.6474 14.388 24.0327C14.1824 24.4176 14.0698 24.8186 14.0698 25.2149C14.0687 25.6411 14.206 26.0546 14.4524 26.3924C14.6994 26.7307 15.0457 26.9926 15.4524 27.1781C15.974 27.4136 16.5679 27.5044 17.202 27.5044C18.0216 27.5044 18.9165 27.3493 19.824 27.0839C20.7309 26.8179 21.6493 26.4412 22.5058 25.9834C22.7981 25.8266 22.9089 25.4618 22.7527 25.1689C22.5953 24.8759 22.2306 24.7651 21.9377 24.9219C21.1559 25.3406 20.3076 25.6881 19.4856 25.9282C18.6637 26.1695 17.867 26.3016 17.2019 26.3004C16.6866 26.3015 16.2536 26.2212 15.9503 26.081C15.6982 25.9672 15.5293 25.8248 15.4265 25.6835C15.3231 25.5388 15.2754 25.3958 15.2744 25.2148C15.2744 25.0476 15.3215 24.842 15.4501 24.6002C15.643 24.2383 16.0238 23.8036 16.6418 23.3631Z" fill="white"/>
<path d="M13.9346 21.3874C13.2517 21.7745 12.7261 22.4063 12.3574 23.134C11.9909 23.8647 11.7813 24.6993 11.7795 25.5355C11.7795 26.1558 11.8973 26.7791 12.1724 27.3483C12.4447 27.917 12.8829 28.427 13.4854 28.7854C14.7416 29.5366 16.1385 29.8101 17.49 29.8101C19.038 29.8101 20.5376 29.4563 21.7858 29.0163C22.4095 28.7952 22.9701 28.5528 23.4434 28.3173C23.9173 28.0813 24.2993 27.856 24.5813 27.6551C24.8525 27.462 24.915 27.0858 24.7215 26.8153C24.528 26.5453 24.1529 26.4821 23.8817 26.6751C23.675 26.8233 23.3344 27.0266 22.9064 27.2403C21.6204 27.8825 19.532 28.6096 17.4901 28.6061C16.2971 28.6056 15.1288 28.3649 14.103 27.7521C13.7078 27.5149 13.4401 27.2013 13.2564 26.825C13.0743 26.4476 12.9841 26.0042 12.9841 25.5355C12.9835 24.9049 13.1501 24.2368 13.4333 23.6757C13.7152 23.1122 14.1133 22.6659 14.5246 22.4379C14.8146 22.2754 14.9169 21.9078 14.7544 21.6183C14.5918 21.3288 14.2246 21.2254 13.9346 21.3874Z" fill="white"/>
<path d="M13.9169 31.5314C15.2466 31.9674 16.7107 32.1747 18.1988 32.1747C20.6687 32.173 23.2086 31.6067 25.3131 30.5084C26.3287 29.9783 27.0673 29.3092 27.552 28.5843C28.0368 27.8601 28.2649 27.0823 28.2649 26.3523C28.2649 25.5907 28.0167 24.8761 27.5515 24.3409C27.0896 23.8044 26.3941 23.4632 25.6118 23.4661C25.15 23.4661 24.6652 23.5804 24.1764 23.8101C23.8755 23.9508 23.7457 24.3099 23.8869 24.6102C24.0283 24.9118 24.3867 25.0415 24.6882 24.9003V24.8997C25.0409 24.7348 25.3488 24.671 25.6119 24.6705C26.0553 24.6739 26.3862 24.8422 26.6429 25.1317C26.8967 25.423 27.0605 25.8503 27.0605 26.3523C27.0605 26.8331 26.9118 27.3753 26.551 27.9147C26.1908 28.4539 25.616 28.991 24.7555 29.4414C22.8567 30.4362 20.4833 30.9715 18.199 30.9704C16.8222 30.9704 15.4788 30.7773 14.2927 30.3874C13.1048 29.9985 12.0779 29.4138 11.3094 28.6464C11.075 28.4109 10.693 28.4109 10.4582 28.6464C10.2232 28.8814 10.2232 29.2621 10.4582 29.4977C11.3907 30.4292 12.5884 31.096 13.9169 31.5314Z" fill="white"/>
<path d="M11.5781 23.2752C11.8124 23.0397 11.8124 22.6589 11.5781 22.4239C11.3426 22.1884 10.9612 22.1884 10.7257 22.4239C10.2846 22.8691 9.94568 23.4722 9.69355 24.1293C9.44481 24.7875 9.29089 25.4952 9.28857 26.1615C9.29089 26.5957 9.35354 27.0167 9.5436 27.4004C9.69066 27.698 10.0525 27.8191 10.35 27.6698C10.6481 27.5216 10.7687 27.1609 10.62 26.8634C10.5465 26.7198 10.4925 26.47 10.4936 26.1615C10.4924 25.6894 10.6142 25.0943 10.8198 24.5567C11.0215 24.0196 11.3122 23.5366 11.5781 23.2752Z" fill="white"/>
<path d="M33.892 23.1644C32.6496 21.3654 30.6106 19.9019 27.9995 18.8767C27.4223 18.6492 26.8117 18.4476 26.1787 18.2656V18.2897C26.1787 18.7711 26.1224 19.2403 26.0224 19.6987C27.4101 20.1168 28.6428 20.6476 29.687 21.268C31.0138 22.0543 32.0385 22.9773 32.722 23.9698C33.4067 24.9652 33.7571 26.0204 33.7577 27.1324C33.7571 28.2421 33.4067 29.2978 32.722 30.2931C31.6985 31.7825 29.899 33.1162 27.4802 34.0645C25.0632 35.0134 22.0368 35.5792 18.6003 35.5792C14.0156 35.5815 10.2052 34.5711 7.59469 32.9979C6.28856 32.2134 5.28457 31.2908 4.61431 30.2983C3.94455 29.3035 3.60107 28.2466 3.59941 27.1324C3.60114 26.0169 3.94462 24.9583 4.61431 23.9641C5.61772 22.4765 7.38107 21.145 9.77104 20.1985C12.1588 19.2502 15.1621 18.6845 18.6004 18.6845C19.7279 18.6845 20.8129 18.7459 21.8451 18.8602C21.8911 18.6798 21.9157 18.4904 21.9157 18.2876V17.445C20.8531 17.3301 19.7498 17.2634 18.6004 17.2634C13.809 17.2646 9.7636 18.3048 6.863 20.0469C5.4127 20.9199 4.24669 21.9699 3.43746 23.168C2.62693 24.3663 2.17787 25.7177 2.17896 27.1325C2.1778 28.5454 2.62693 29.8981 3.43746 31.0945C4.65514 32.8923 6.66261 34.3587 9.24617 35.3863C11.8325 36.4119 15.0065 37 18.6003 37C23.3901 36.9989 27.4727 35.9581 30.4118 34.2189C31.8806 33.3476 33.0654 32.2976 33.892 31.0995C34.7191 29.9025 35.1804 28.5498 35.1791 27.1322C35.1804 25.7135 34.7192 24.3597 33.892 23.1644Z" fill="white"/>
<path d="M23.1282 9.60092V19.2367C23.1265 19.7709 23.0076 20.2396 22.7813 20.6807C22.4412 21.34 21.8388 21.9478 20.9898 22.5003C20.1432 23.0535 19.0587 23.5463 17.8089 23.988C17.4952 24.0983 17.331 24.4418 17.4418 24.7565C17.5521 25.0695 17.8962 25.2344 18.2098 25.1235C19.9541 24.5061 21.4453 23.7852 22.5423 22.8416C23.0898 22.3694 23.5389 21.8369 23.8508 21.2333C24.1638 20.6302 24.3327 19.9571 24.3321 19.2367V9.60092C24.3321 9.26778 24.0622 8.99902 23.7302 8.99902C23.3976 8.99902 23.1282 9.26785 23.1282 9.60092Z" fill="white"/>
</svg>
