<svg width="37" height="39" viewBox="0 0 37 39" fill="none" xmlns="http://www.w3.org/2000/svg">
<path d="M24.9839 4.44623e-05C24.8315 0.0183257 24.6914 0.0640289 24.5451 0.121919L4.72824 8.16567C4.22855 8.36676 3.87207 8.80247 3.77762 9.33567L0.584491 27.495C0.496131 27.9978 0.660662 28.5005 1.02324 28.86L10.7732 38.5369C11.41 39.1707 12.4704 39.1402 13.0645 38.4638L36.0501 12.285C36.5925 11.6696 36.5559 10.7159 35.977 10.14L26.2514 0.463169C26.0289 0.240748 25.7456 0.085357 25.447 0.0244195C25.2977 -0.00604929 25.1362 -0.0182368 24.9839 4.44623e-05ZM25.7395 2.14504L28.2257 4.60692C27.6956 5.75864 27.7261 6.77934 27.3482 7.26379C27.0405 7.65989 26.3245 7.92192 25.5201 8.45817C23.9357 9.51239 23.2167 11.115 22.1564 11.9438C20.9772 12.867 18.9876 13.1351 17.4276 14.5519C16.1236 15.7372 15.6208 17.224 15.1364 18.5494C14.6519 19.8748 14.204 21.0174 13.2107 21.8644C12.5557 22.422 11.2882 22.876 10.2614 23.6682C8.9573 24.6767 8.36621 26.1605 7.94574 27.4219C7.73551 28.0526 7.56184 28.6437 7.40949 29.0794C7.25715 29.5151 7.08652 29.7924 7.09262 29.7863C6.75137 30.0849 5.99269 30.2738 5.31324 30.9319L2.70512 28.3482L25.7395 2.14504ZM23.6189 2.16942L2.36387 26.3982L5.31324 9.6038L23.6189 2.16942ZM29.4689 5.85004L31.4432 7.82442C29.1307 9.2077 27.8266 10.7982 26.9095 12.2607C25.8614 13.9334 25.2703 15.335 23.9845 16.4288C23.4482 16.8828 22.0954 17.8669 20.7914 18.8663C19.4873 19.8657 18.2686 20.7889 17.5495 21.6938C16.7329 22.7236 16.2729 24.0612 15.8676 25.2769C15.6635 25.8863 15.4868 26.4622 15.3314 26.91C15.176 27.3579 14.9901 27.7266 15.0145 27.69C13.616 29.6949 12.6257 29.963 11.3582 30.615C10.304 31.1574 9.17059 32.0775 8.38449 33.9788L6.43449 32.0288C6.77269 31.7637 7.43082 31.5565 8.11637 30.9563C8.56121 30.5693 8.7166 30.1032 8.89637 29.5913C9.07613 29.0794 9.21324 28.4944 9.40824 27.9094C9.79824 26.7425 10.3497 25.5725 11.2364 24.8869C11.9402 24.3415 13.2016 23.918 14.2101 23.0588C15.5538 21.9132 16.1114 20.4172 16.5989 19.0857C17.0864 17.7542 17.5068 16.5781 18.4757 15.6975C19.5574 14.7165 21.4739 14.4392 23.107 13.1625C24.5756 12.0139 25.3068 10.4752 26.3976 9.75004C26.9521 9.38137 27.8997 9.10411 28.5914 8.21442C29.2251 7.39786 29.3287 6.51731 29.4689 5.85004ZM16.1601 6.24004C15.7305 6.24004 15.3801 6.59044 15.3801 7.02004C15.3801 7.44965 15.7305 7.80005 16.1601 7.80005C16.5897 7.80005 16.9401 7.44965 16.9401 7.02004C16.9401 6.59044 16.5897 6.24004 16.1601 6.24004ZM11.4801 8.58004C11.0505 8.58004 10.7001 8.93044 10.7001 9.36004C10.7001 9.78965 11.0505 10.14 11.4801 10.14C11.9097 10.14 12.2601 9.78965 12.2601 9.36004C12.2601 8.93044 11.9097 8.58004 11.4801 8.58004ZM33.1739 9.53067L34.8801 11.2369L11.8945 37.44C11.8823 37.4522 11.8823 37.4522 11.8701 37.44L10.2126 35.7825C10.8403 33.473 11.3674 33.2567 12.4307 32.7113C13.5063 32.1598 15.2613 31.4133 16.9401 29.0063C17.2479 28.5645 17.3758 28.1897 17.5495 27.69C17.7232 27.1904 17.8938 26.6115 18.0857 26.0325C18.4727 24.8747 18.9785 23.659 19.3776 23.1563C19.6762 22.7815 20.9559 21.6938 22.2295 20.7188C23.5031 19.7438 24.7828 18.8145 25.4957 18.2082C27.2325 16.7335 27.9729 14.9968 28.9082 13.5038C29.7949 12.087 30.84 10.7829 33.1739 9.53067ZM7.58012 10.92C7.15051 10.92 6.80012 11.2704 6.80012 11.7C6.80012 12.1297 7.15051 12.48 7.58012 12.48C8.00973 12.48 8.36012 12.1297 8.36012 11.7C8.36012 11.2704 8.00973 10.92 7.58012 10.92ZM10.7001 12.48C10.2705 12.48 9.92012 12.8304 9.92012 13.26C9.92012 13.6897 10.2705 14.04 10.7001 14.04C11.1297 14.04 11.4801 13.6897 11.4801 13.26C11.4801 12.8304 11.1297 12.48 10.7001 12.48ZM6.02012 17.16C5.59051 17.16 5.24012 17.5104 5.24012 17.94C5.24012 18.3697 5.59051 18.72 6.02012 18.72C6.44973 18.72 6.80012 18.3697 6.80012 17.94C6.80012 17.5104 6.44973 17.16 6.02012 17.16Z" fill="white"/>
</svg>
