<svg width="93" height="94" viewBox="0 0 93 94" fill="none" xmlns="http://www.w3.org/2000/svg">
<path d="M46.5003 0C20.8189 0 0 21.0423 0 46.9991C0 72.9555 20.8189 94 46.5003 94C72.1811 94 93 72.9555 93 46.9992C93 21.0424 72.1811 0 46.5003 0ZM76.5469 37.4458L43.1906 71.1551C42.5101 71.8475 41.4013 71.8475 40.7246 71.1551L35.794 66.1244C35.1177 65.4341 34.0053 64.3051 33.3291 63.6085L21.8586 51.4235C21.5223 51.0772 21.3425 50.5995 21.3425 50.1435C21.3425 49.6902 21.5223 49.2557 21.8586 48.9074L26.8853 44.3286C27.2252 43.9782 27.6804 43.8068 28.1294 43.809C28.5882 43.8125 29.0271 43.9993 29.3503 44.3286L40.7247 56.0623C41.4015 56.7585 42.5103 56.7585 43.1907 56.0623L69.1536 29.895C69.8305 29.2051 70.9388 29.2051 71.6155 29.895L76.5471 34.9296C77.2263 35.618 77.2263 36.7534 76.5469 37.4458Z" fill="#05C697"/>
</svg>
